<svg width="6875" height="2593" xmlns="http://www.w3.org/2000/svg" xmlns:xlink="http://www.w3.org/1999/xlink" xml:space="preserve" overflow="hidden"><defs><clipPath id="clip0"><rect x="7165" y="1369" width="6875" height="2593"/></clipPath></defs><g clip-path="url(#clip0)" transform="translate(-7165 -1369)"><path d="M7660.22 1652.5 7660.22 3910.89 7656.78 3910.89 7656.78 1652.5ZM7672.25 3906.3 7658.5 3933.8 7644.75 3906.3Z" fill="#FFFFFF"/><text font-family="Arial,Arial_MSFontService,sans-serif" font-weight="400" font-size="248" transform="matrix(1 0 0 1 11581.4 2895)">Statistical inference</text><path d="M7319.75 1511 7319.75 3661.32 7292.25 3661.32 7292.25 1511ZM7374.75 3647.57 7306 3785.07 7237.25 3647.57Z"/><path d="M7744 1609C7744 1554.88 7787.88 1511 7842 1511L10592 1511C10646.1 1511 10690 1554.88 10690 1609L10690 2001C10690 2055.12 10646.1 2099 10592 2099L7842 2099C7787.88 2099 7744 2055.12 7744 2001Z" stroke="#C0504D" stroke-width="10.3125" stroke-miterlimit="8" fill="#F2DCDB" fill-rule="evenodd"/><text font-family="Arial,Arial_MSFontService,sans-serif" font-weight="400" font-size="202" transform="matrix(1 0 0 1 8078 1759)">Latent cognitive variables </text><text font-family="Arial,Arial_MSFontService,sans-serif" font-weight="400" font-size="202" transform="matrix(1 0 0 1 8241.01 2001)">(goals values, beliefs)</text><path d="M7744 2483C7744 2428.88 7787.88 2385 7842 2385L10592 2385C10646.1 2385 10690 2428.88 10690 2483L10690 2875C10690 2929.12 10646.1 2973 10592 2973L7842 2973C7787.88 2973 7744 2929.12 7744 2875Z" stroke="#C0504D" stroke-width="10.3125" stroke-miterlimit="8" fill="#F2DCDB" fill-rule="evenodd"/><text font-family="Arial,Arial_MSFontService,sans-serif" font-weight="400" font-size="202" transform="matrix(1 0 0 1 8010.4 2754)">Behavioral and neural data</text><path d="M7762 3357C7762 3302.88 7805.88 3259 7860 3259L10610 3259C10664.1 3259 10708 3302.88 10708 3357L10708 3749C10708 3803.12 10664.1 3847 10610 3847L7860 3847C7805.88 3847 7762 3803.12 7762 3749Z" stroke="#C0504D" stroke-width="10.3125" stroke-miterlimit="8" fill="#F2DCDB" fill-rule="evenodd"/><text font-family="Arial,Arial_MSFontService,sans-serif" font-weight="400" font-size="202" transform="matrix(1 0 0 1 8309.62 3628)">Limited observations </text><path d="M13.75-2.12311e-06 13.75 110-13.75 110-13.75 2.12311e-06ZM13.75 192.5 13.75 302.5-13.75 302.5-13.75 192.5ZM13.7501 385 13.7501 495-13.7499 495-13.7499 385ZM13.7501 577.5 13.7501 687.5-13.7499 687.5-13.7499 577.5ZM13.7501 770 13.7501 880-13.7499 880-13.7499 770ZM13.7501 962.5 13.7502 1072.5-13.7498 1072.5-13.7499 962.5ZM13.7502 1155 13.7502 1265-13.7498 1265-13.7498 1155ZM13.7502 1347.5 13.7502 1457.5-13.7498 1457.5-13.7498 1347.5ZM13.7502 1540 13.7503 1650-13.7497 1650-13.7498 1540ZM13.7503 1732.5 13.7503 1842.5-13.7497 1842.5-13.7497 1732.5ZM13.7503 1925 13.7503 2035-13.7497 2035-13.7497 1925ZM13.7503 2117.5 13.7503 2213.51-13.7497 2213.51-13.7497 2117.5ZM68.7503 2199.76 0.000360892 2337.26-68.7497 2199.76Z" transform="matrix(1 0 0 -1 11357 3847.26)"/></g></svg>