<svg width="6875" height="2557" xmlns="http://www.w3.org/2000/svg" xmlns:xlink="http://www.w3.org/1999/xlink" xml:space="preserve" overflow="hidden"><defs><clipPath id="clip0"><rect x="3212" y="3693" width="6875" height="2557"/></clipPath></defs><g clip-path="url(#clip0)" transform="translate(-3212 -3693)"><text font-family="Arial,Arial_MSFontService,sans-serif" font-weight="400" font-size="248" transform="matrix(1 0 0 1 7627.78 5220)">Statistical</text><text font-family="Arial,Arial_MSFontService,sans-serif" font-weight="400" font-size="248" transform="matrix(1 0 0 1 8755.28 5220)">i</text><text font-family="Arial,Arial_MSFontService,sans-serif" font-weight="400" font-size="248" transform="matrix(1 0 0 1 8810.28 5220)">nference</text><path d="M3366.75 3835 3366.75 5985.32 3339.25 5985.32 3339.25 3835ZM3421.75 5971.57 3353 6109.07 3284.25 5971.57Z"/><path d="M3790.5 3933.67C3790.5 3879.45 3834.45 3835.5 3888.67 3835.5L6638.33 3835.5C6692.55 3835.5 6736.5 3879.45 6736.5 3933.67L6736.5 4326.33C6736.5 4380.55 6692.55 4424.5 6638.33 4424.5L3888.67 4424.5C3834.45 4424.5 3790.5 4380.55 3790.5 4326.33Z" stroke="#385D8A" stroke-width="9.16667" stroke-miterlimit="8" fill="#4F81BD" fill-rule="evenodd"/><text fill="#FFFFFF" font-family="Arial,Arial_MSFontService,sans-serif" font-weight="400" font-size="202" transform="matrix(1 0 0 1 4124.37 4083)">Latent cognitive variables </text><text fill="#FFFFFF" font-family="Arial,Arial_MSFontService,sans-serif" font-weight="400" font-size="202" transform="matrix(1 0 0 1 4287.38 4325)">(goals values, beliefs)</text><path d="M3790.5 4807.67C3790.5 4753.45 3834.45 4709.5 3888.67 4709.5L6638.33 4709.5C6692.55 4709.5 6736.5 4753.45 6736.5 4807.67L6736.5 5200.33C6736.5 5254.55 6692.55 5298.5 6638.33 5298.5L3888.67 5298.5C3834.45 5298.5 3790.5 5254.55 3790.5 5200.33Z" stroke="#385D8A" stroke-width="9.16667" stroke-miterlimit="8" fill="#4F81BD" fill-rule="evenodd"/><text fill="#FFFFFF" font-family="Arial,Arial_MSFontService,sans-serif" font-weight="400" font-size="202" transform="matrix(1 0 0 1 4056.77 5078)">Behavioral and neural data</text><path d="M3808.5 5681.67C3808.5 5627.45 3852.45 5583.5 3906.67 5583.5L6656.33 5583.5C6710.55 5583.5 6754.5 5627.45 6754.5 5681.67L6754.5 6074.33C6754.5 6128.55 6710.55 6172.5 6656.33 6172.5L3906.67 6172.5C3852.45 6172.5 3808.5 6128.55 3808.5 6074.33Z" stroke="#385D8A" stroke-width="9.16667" stroke-miterlimit="8" fill="#4F81BD" fill-rule="evenodd"/><text fill="#FFFFFF" font-family="Arial,Arial_MSFontService,sans-serif" font-weight="400" font-size="202" transform="matrix(1 0 0 1 4355.99 5952)">Limited observations </text><path d="M13.75-2.12311e-06 13.75 110-13.75 110-13.75 2.12311e-06ZM13.75 192.5 13.75 302.5-13.75 302.5-13.75 192.5ZM13.7501 385 13.7501 495-13.7499 495-13.7499 385ZM13.7501 577.5 13.7501 687.5-13.7499 687.5-13.7499 577.5ZM13.7501 770 13.7501 880-13.7499 880-13.7499 770ZM13.7501 962.5 13.7502 1072.5-13.7498 1072.5-13.7499 962.5ZM13.7502 1155 13.7502 1265-13.7498 1265-13.7498 1155ZM13.7502 1347.5 13.7502 1457.5-13.7498 1457.5-13.7498 1347.5ZM13.7502 1540 13.7503 1650-13.7497 1650-13.7498 1540ZM13.7503 1732.5 13.7503 1842.5-13.7497 1842.5-13.7497 1732.5ZM13.7503 1925 13.7503 2035-13.7497 2035-13.7497 1925ZM13.7503 2117.5 13.7503 2213.51-13.7497 2213.51-13.7497 2117.5ZM68.7503 2199.76 0.000360892 2337.26-68.7497 2199.76Z" transform="matrix(1 0 0 -1 7403 6171.26)"/></g></svg>